<?xml version="1.0" encoding="utf-8"?>
<!-- Uploaded to: SVG Repo, www.svgrepo.com, Generator: SVG Repo Mixer Tools -->
<svg fill="#000000" width="800px" height="800px" viewBox="0 0 32 32" version="1.1" xmlns="http://www.w3.org/2000/svg">
<title>shopping</title>
<path d="M20.125 20.156v1.438h-13.781l-2.406-14.156h-3.938v-1.406h5.156l2.406 14.125h12.563zM22.406 6l-2.156 12.5h-11.281l-2.188-12.5h15.625zM10.438 9.844v-2.406h-1.938l0.438 2.406h1.5zM11.875 9.844h1.969v-2.406h-1.969v2.406zM15.281 7.438v2.406h2v-2.406h-2zM18.719 9.844h1.563l0.438-2.406h-2v2.406zM10.438 11.281h-1.281l0.344 2h0.938v-2zM13.844 13.281v-2h-1.969v2h1.969zM15.281 13.281h2v-2h-2v2zM20.031 11.281h-1.313v2h0.969zM10.438 14.719h-0.688l0.406 2.344h0.281v-2.344zM11.875 17.063h1.969v-2.344h-1.969v2.344zM17.281 14.719h-2v2.344h2v-2.344zM18.719 14.719v2.344h0.313l0.438-2.344h-0.75zM7.938 22.438c1 0 1.75 0.781 1.75 1.75 0 1-0.75 1.781-1.75 1.781-0.969 0-1.75-0.781-1.75-1.781 0-0.969 0.781-1.75 1.75-1.75zM18.656 22.438c1 0 1.75 0.781 1.75 1.75 0 1-0.75 1.781-1.75 1.781s-1.75-0.781-1.75-1.781c0-0.969 0.75-1.75 1.75-1.75z"></path>
</svg>